<?xml version="1.0" encoding="UTF-8" standalone="no"?>
<!-- Created with Inkscape (http://www.inkscape.org/) -->

<svg
   xmlns:dc="http://purl.org/dc/elements/1.1/"
   xmlns:cc="http://creativecommons.org/ns#"
   xmlns:rdf="http://www.w3.org/1999/02/22-rdf-syntax-ns#"
   xmlns:svg="http://www.w3.org/2000/svg"
   xmlns="http://www.w3.org/2000/svg"
   version="1.1"
   width="228.85001"
   height="56.360001"
   id="svg2"
   xml:space="preserve"><metadata
     id="metadata8"><rdf:RDF><cc:Work
         rdf:about=""><dc:format>image/svg+xml</dc:format><dc:type
           rdf:resource="http://purl.org/dc/dcmitype/StillImage" /><dc:title></dc:title></cc:Work></rdf:RDF></metadata><defs
     id="defs6"><clipPath
       id="clipPath16"><path
         d="m 0,841.835 1238.33,0 L 1238.33,0 0,0 0,841.835 z"
         id="path18" /></clipPath><clipPath
       id="clipPath34"><path
         d="m 0,841.835 1238.33,0 L 1238.33,0 0,0 0,841.835 z"
         id="path36" /></clipPath><clipPath
       id="clipPath50"><path
         d="m 0,841.835 1238.33,0 L 1238.33,0 0,0 0,841.835 z"
         id="path52" /></clipPath><clipPath
       id="clipPath66"><path
         d="m 0,841.835 1238.33,0 L 1238.33,0 0,0 0,841.835 z"
         id="path68" /></clipPath><clipPath
       id="clipPath82"><path
         d="m 0,841.835 1238.33,0 L 1238.33,0 0,0 0,841.835 z"
         id="path84" /></clipPath><clipPath
       id="clipPath98"><path
         d="m 0,841.835 1238.33,0 L 1238.33,0 0,0 0,841.835 z"
         id="path100" /></clipPath><clipPath
       id="clipPath114"><path
         d="m 0,841.835 1238.33,0 L 1238.33,0 0,0 0,841.835 z"
         id="path116" /></clipPath><clipPath
       id="clipPath130"><path
         d="m 0,841.835 1238.33,0 L 1238.33,0 0,0 0,841.835 z"
         id="path132" /></clipPath><clipPath
       id="clipPath146"><path
         d="m 0,841.835 1238.33,0 L 1238.33,0 0,0 0,841.835 z"
         id="path148" /></clipPath><clipPath
       id="clipPath162"><path
         d="m 0,841.835 1238.33,0 L 1238.33,0 0,0 0,841.835 z"
         id="path164" /></clipPath><clipPath
       id="clipPath178"><path
         d="m 0,841.835 1238.33,0 L 1238.33,0 0,0 0,841.835 z"
         id="path180" /></clipPath><clipPath
       id="clipPath194"><path
         d="m 0,841.835 1238.33,0 L 1238.33,0 0,0 0,841.835 z"
         id="path196" /></clipPath><clipPath
       id="clipPath210"><path
         d="m 0,841.835 1238.33,0 L 1238.33,0 0,0 0,841.835 z"
         id="path212" /></clipPath><clipPath
       id="clipPath226"><path
         d="m 0,841.835 1238.33,0 L 1238.33,0 0,0 0,841.835 z"
         id="path228" /></clipPath><clipPath
       id="clipPath242"><path
         d="m 0,841.835 1238.33,0 L 1238.33,0 0,0 0,841.835 z"
         id="path244" /></clipPath><clipPath
       id="clipPath258"><path
         d="m 0,841.835 1238.33,0 L 1238.33,0 0,0 0,841.835 z"
         id="path260" /></clipPath><clipPath
       id="clipPath274"><path
         d="m 0,841.835 1238.33,0 L 1238.33,0 0,0 0,841.835 z"
         id="path276" /></clipPath><clipPath
       id="clipPath290"><path
         d="m 0,841.835 1238.33,0 L 1238.33,0 0,0 0,841.835 z"
         id="path292" /></clipPath><clipPath
       id="clipPath306"><path
         d="m 0,841.835 1238.33,0 L 1238.33,0 0,0 0,841.835 z"
         id="path308" /></clipPath><clipPath
       id="clipPath322"><path
         d="m 0,841.835 1238.33,0 L 1238.33,0 0,0 0,841.835 z"
         id="path324" /></clipPath><clipPath
       id="clipPath338"><path
         d="m 0,841.835 1238.33,0 L 1238.33,0 0,0 0,841.835 z"
         id="path340" /></clipPath><clipPath
       id="clipPath354"><path
         d="m 0,841.835 1238.33,0 L 1238.33,0 0,0 0,841.835 z"
         id="path356" /></clipPath><clipPath
       id="clipPath370"><path
         d="m 0,841.835 1238.33,0 L 1238.33,0 0,0 0,841.835 z"
         id="path372" /></clipPath><clipPath
       id="clipPath386"><path
         d="m 0,841.835 1238.33,0 L 1238.33,0 0,0 0,841.835 z"
         id="path388" /></clipPath><clipPath
       id="clipPath402"><path
         d="m 0,841.835 1238.33,0 L 1238.33,0 0,0 0,841.835 z"
         id="path404" /></clipPath><clipPath
       id="clipPath418"><path
         d="m 0,841.835 1238.33,0 L 1238.33,0 0,0 0,841.835 z"
         id="path420" /></clipPath><clipPath
       id="clipPath434"><path
         d="m 0,841.835 1238.33,0 L 1238.33,0 0,0 0,841.835 z"
         id="path436" /></clipPath><clipPath
       id="clipPath450"><path
         d="m 0,841.835 1238.33,0 L 1238.33,0 0,0 0,841.835 z"
         id="path452" /></clipPath><clipPath
       id="clipPath466"><path
         d="m 0,841.835 1238.33,0 L 1238.33,0 0,0 0,841.835 z"
         id="path468" /></clipPath><clipPath
       id="clipPath482"><path
         d="m 0,841.835 1238.33,0 L 1238.33,0 0,0 0,841.835 z"
         id="path484" /></clipPath><clipPath
       id="clipPath498"><path
         d="m 0,841.835 1238.33,0 L 1238.33,0 0,0 0,841.835 z"
         id="path500" /></clipPath><clipPath
       id="clipPath514"><path
         d="m 0,841.835 1238.33,0 L 1238.33,0 0,0 0,841.835 z"
         id="path516" /></clipPath><clipPath
       id="clipPath530"><path
         d="m 0,841.835 1238.33,0 L 1238.33,0 0,0 0,841.835 z"
         id="path532" /></clipPath><clipPath
       id="clipPath546"><path
         d="m 0,841.835 1238.33,0 L 1238.33,0 0,0 0,841.835 z"
         id="path548" /></clipPath><clipPath
       id="clipPath562"><path
         d="m 0,841.835 1238.33,0 L 1238.33,0 0,0 0,841.835 z"
         id="path564" /></clipPath><clipPath
       id="clipPath578"><path
         d="m 0,841.835 1238.33,0 L 1238.33,0 0,0 0,841.835 z"
         id="path580" /></clipPath><clipPath
       id="clipPath594"><path
         d="m 0,841.835 1238.33,0 L 1238.33,0 0,0 0,841.835 z"
         id="path596" /></clipPath><clipPath
       id="clipPath610"><path
         d="m 0,841.835 1238.33,0 L 1238.33,0 0,0 0,841.835 z"
         id="path612" /></clipPath><clipPath
       id="clipPath626"><path
         d="m 0,841.835 1238.33,0 L 1238.33,0 0,0 0,841.835 z"
         id="path628" /></clipPath><clipPath
       id="clipPath642"><path
         d="m 0,841.835 1238.33,0 L 1238.33,0 0,0 0,841.835 z"
         id="path644" /></clipPath><clipPath
       id="clipPath658"><path
         d="m 0,841.835 1238.33,0 L 1238.33,0 0,0 0,841.835 z"
         id="path660" /></clipPath><clipPath
       id="clipPath674"><path
         d="m 0,841.835 1238.33,0 L 1238.33,0 0,0 0,841.835 z"
         id="path676" /></clipPath><clipPath
       id="clipPath690"><path
         d="m 0,841.835 1238.33,0 L 1238.33,0 0,0 0,841.835 z"
         id="path692" /></clipPath><clipPath
       id="clipPath706"><path
         d="m 0,841.835 1238.33,0 L 1238.33,0 0,0 0,841.835 z"
         id="path708" /></clipPath><clipPath
       id="clipPath722"><path
         d="m 0,841.835 1238.33,0 L 1238.33,0 0,0 0,841.835 z"
         id="path724" /></clipPath><clipPath
       id="clipPath738"><path
         d="m 0,841.835 1238.33,0 L 1238.33,0 0,0 0,841.835 z"
         id="path740" /></clipPath><clipPath
       id="clipPath754"><path
         d="m 0,841.835 1238.33,0 L 1238.33,0 0,0 0,841.835 z"
         id="path756" /></clipPath><clipPath
       id="clipPath770"><path
         d="m 0,841.835 1238.33,0 L 1238.33,0 0,0 0,841.835 z"
         id="path772" /></clipPath><clipPath
       id="clipPath786"><path
         d="m 0,841.835 1238.33,0 L 1238.33,0 0,0 0,841.835 z"
         id="path788" /></clipPath><clipPath
       id="clipPath802"><path
         d="m 0,841.835 1238.33,0 L 1238.33,0 0,0 0,841.835 z"
         id="path804" /></clipPath><clipPath
       id="clipPath818"><path
         d="m 0,841.835 1238.33,0 L 1238.33,0 0,0 0,841.835 z"
         id="path820" /></clipPath><clipPath
       id="clipPath834"><path
         d="m 0,841.835 1238.33,0 L 1238.33,0 0,0 0,841.835 z"
         id="path836" /></clipPath><clipPath
       id="clipPath850"><path
         d="m 0,841.835 1238.33,0 L 1238.33,0 0,0 0,841.835 z"
         id="path852" /></clipPath><clipPath
       id="clipPath866"><path
         d="m 0,841.835 1238.33,0 L 1238.33,0 0,0 0,841.835 z"
         id="path868" /></clipPath><clipPath
       id="clipPath882"><path
         d="m 0,841.835 1238.33,0 L 1238.33,0 0,0 0,841.835 z"
         id="path884" /></clipPath><clipPath
       id="clipPath898"><path
         d="m 0,841.835 1238.33,0 L 1238.33,0 0,0 0,841.835 z"
         id="path900" /></clipPath><clipPath
       id="clipPath914"><path
         d="m 0,841.835 1238.33,0 L 1238.33,0 0,0 0,841.835 z"
         id="path916" /></clipPath><clipPath
       id="clipPath930"><path
         d="m 0,841.835 1238.33,0 L 1238.33,0 0,0 0,841.835 z"
         id="path932" /></clipPath><clipPath
       id="clipPath946"><path
         d="m 0,841.835 1238.33,0 L 1238.33,0 0,0 0,841.835 z"
         id="path948" /></clipPath><clipPath
       id="clipPath962"><path
         d="m 0,841.835 1238.33,0 L 1238.33,0 0,0 0,841.835 z"
         id="path964" /></clipPath><clipPath
       id="clipPath978"><path
         d="m 0,841.835 1238.33,0 L 1238.33,0 0,0 0,841.835 z"
         id="path980" /></clipPath><clipPath
       id="clipPath994"><path
         d="m 0,841.835 1238.33,0 L 1238.33,0 0,0 0,841.835 z"
         id="path996" /></clipPath><clipPath
       id="clipPath1010"><path
         d="m 0,841.835 1238.33,0 L 1238.33,0 0,0 0,841.835 z"
         id="path1012" /></clipPath><clipPath
       id="clipPath1026"><path
         d="m 0,841.835 1238.33,0 L 1238.33,0 0,0 0,841.835 z"
         id="path1028" /></clipPath><clipPath
       id="clipPath1042"><path
         d="m 0,841.835 1238.33,0 L 1238.33,0 0,0 0,841.835 z"
         id="path1044" /></clipPath><clipPath
       id="clipPath1058"><path
         d="m 0,841.835 1238.33,0 L 1238.33,0 0,0 0,841.835 z"
         id="path1060" /></clipPath><clipPath
       id="clipPath1074"><path
         d="m 0,841.835 1238.33,0 L 1238.33,0 0,0 0,841.835 z"
         id="path1076" /></clipPath><clipPath
       id="clipPath1090"><path
         d="m 0,841.835 1238.33,0 L 1238.33,0 0,0 0,841.835 z"
         id="path1092" /></clipPath><clipPath
       id="clipPath1106"><path
         d="m 0,841.835 1238.33,0 L 1238.33,0 0,0 0,841.835 z"
         id="path1108" /></clipPath><clipPath
       id="clipPath1122"><path
         d="m 0,841.835 1238.33,0 L 1238.33,0 0,0 0,841.835 z"
         id="path1124" /></clipPath><clipPath
       id="clipPath1138"><path
         d="m 0,841.835 1238.33,0 L 1238.33,0 0,0 0,841.835 z"
         id="path1140" /></clipPath><clipPath
       id="clipPath1154"><path
         d="m 0,841.835 1238.33,0 L 1238.33,0 0,0 0,841.835 z"
         id="path1156" /></clipPath><clipPath
       id="clipPath1170"><path
         d="m 0,841.835 1238.33,0 L 1238.33,0 0,0 0,841.835 z"
         id="path1172" /></clipPath><clipPath
       id="clipPath1186"><path
         d="m 0,841.835 1238.33,0 L 1238.33,0 0,0 0,841.835 z"
         id="path1188" /></clipPath><clipPath
       id="clipPath1202"><path
         d="m 0,841.835 1238.33,0 L 1238.33,0 0,0 0,841.835 z"
         id="path1204" /></clipPath><clipPath
       id="clipPath1218"><path
         d="m 0,841.835 1238.33,0 L 1238.33,0 0,0 0,841.835 z"
         id="path1220" /></clipPath><clipPath
       id="clipPath1234"><path
         d="m 0,841.835 1238.33,0 L 1238.33,0 0,0 0,841.835 z"
         id="path1236" /></clipPath><clipPath
       id="clipPath1250"><path
         d="m 0,841.835 1238.33,0 L 1238.33,0 0,0 0,841.835 z"
         id="path1252" /></clipPath><clipPath
       id="clipPath1266"><path
         d="m 0,841.835 1238.33,0 L 1238.33,0 0,0 0,841.835 z"
         id="path1268" /></clipPath><clipPath
       id="clipPath1282"><path
         d="m 0,841.835 1238.33,0 L 1238.33,0 0,0 0,841.835 z"
         id="path1284" /></clipPath><clipPath
       id="clipPath1298"><path
         d="m 0,841.835 1238.33,0 L 1238.33,0 0,0 0,841.835 z"
         id="path1300" /></clipPath><clipPath
       id="clipPath1314"><path
         d="m 0,841.835 1238.33,0 L 1238.33,0 0,0 0,841.835 z"
         id="path1316" /></clipPath><clipPath
       id="clipPath1330"><path
         d="m 0,841.835 1238.33,0 L 1238.33,0 0,0 0,841.835 z"
         id="path1332" /></clipPath><clipPath
       id="clipPath1346"><path
         d="m 0,841.835 1238.33,0 L 1238.33,0 0,0 0,841.835 z"
         id="path1348" /></clipPath><clipPath
       id="clipPath1362"><path
         d="m 0,841.835 1238.33,0 L 1238.33,0 0,0 0,841.835 z"
         id="path1364" /></clipPath><clipPath
       id="clipPath1378"><path
         d="m 0,841.835 1238.33,0 L 1238.33,0 0,0 0,841.835 z"
         id="path1380" /></clipPath><clipPath
       id="clipPath1394"><path
         d="m 0,841.835 1238.33,0 L 1238.33,0 0,0 0,841.835 z"
         id="path1396" /></clipPath><clipPath
       id="clipPath1410"><path
         d="m 0,841.835 1238.33,0 L 1238.33,0 0,0 0,841.835 z"
         id="path1412" /></clipPath><clipPath
       id="clipPath1426"><path
         d="m 0,841.835 1238.33,0 L 1238.33,0 0,0 0,841.835 z"
         id="path1428" /></clipPath><clipPath
       id="clipPath1442"><path
         d="m 0,841.835 1238.33,0 L 1238.33,0 0,0 0,841.835 z"
         id="path1444" /></clipPath><clipPath
       id="clipPath1458"><path
         d="m 0,841.835 1238.33,0 L 1238.33,0 0,0 0,841.835 z"
         id="path1460" /></clipPath><clipPath
       id="clipPath1474"><path
         d="m 0,841.835 1238.33,0 L 1238.33,0 0,0 0,841.835 z"
         id="path1476" /></clipPath><clipPath
       id="clipPath1490"><path
         d="m 0,841.835 1238.33,0 L 1238.33,0 0,0 0,841.835 z"
         id="path1492" /></clipPath><clipPath
       id="clipPath1506"><path
         d="m 0,841.835 1238.33,0 L 1238.33,0 0,0 0,841.835 z"
         id="path1508" /></clipPath><clipPath
       id="clipPath1522"><path
         d="m 0,841.835 1238.33,0 L 1238.33,0 0,0 0,841.835 z"
         id="path1524" /></clipPath><clipPath
       id="clipPath1538"><path
         d="m 0,841.835 1238.33,0 L 1238.33,0 0,0 0,841.835 z"
         id="path1540" /></clipPath><clipPath
       id="clipPath1562"><path
         d="m 0,841.835 1238.33,0 L 1238.33,0 0,0 0,841.835 z"
         id="path1564" /></clipPath><clipPath
       id="clipPath1594"><path
         d="m 954.634,841.835 168.566,0 0,-224.278 -168.566,0 0,224.278 z"
         id="path1596" /></clipPath><clipPath
       id="clipPath1606"><path
         d="m 0,841.835 1238.33,0 L 1238.33,0 0,0 0,841.835 z"
         id="path1608" /></clipPath></defs><g
     transform="matrix(1.25,0,0,-1.25,0,56.359951)"
     id="g10"><g
       id="g1558"><g
         clip-path="url(#clipPath1562)"
         id="g1560"><g
           transform="translate(630.671,-0.55099)"
           id="g1566"><path
             d="M 0,0 0,0"
             id="path1568"
             style="fill:none;stroke:#936fb1;stroke-width:1;stroke-linecap:round;stroke-linejoin:round;stroke-miterlimit:4;stroke-opacity:1;stroke-dasharray:none" /><g
             transform="translate(0,-13.177)"
             id="g1570"><path
               d="M 0,0 0,0"
               id="path1572"
               style="fill:none;stroke:#936fb1;stroke-width:1;stroke-linecap:round;stroke-linejoin:round;stroke-miterlimit:4;stroke-opacity:1;stroke-dasharray:none" /></g></g></g></g><g
       transform="matrix(0.99493448,0,0,1.2644316,12.469368,20.595064)"
       id="g1622"><path
         d="M 0,0 C -4.165,2.475 -7.697,6.067 -8.844,8.42 L -11.439,6.882 C -9.96,4.226 -7.576,2.082 -5.222,0 -0.061,-4.466 8.479,-7.032 12.282,-6.911 l 0,3.138 C 10.17,-3.923 4.737,-2.837 0,0"
         id="path1624"
         style="fill:#00529b;fill-opacity:1;fill-rule:evenodd;stroke:none" /></g><g
       transform="matrix(0.99493448,0,0,1.2644316,8.2647758,34.790838)"
       id="g1626"><path
         d="M 0,0 -2.655,-1.538 C 1.328,-7.514 8.813,-12.344 16.508,-12.705 l 0,3.077 C 10.111,-9.325 3.561,-5.553 0,0"
         id="path1628"
         style="fill:#00529b;fill-opacity:1;fill-rule:evenodd;stroke:none" /></g><g
       transform="matrix(0.99493448,0,0,1.2644316,12.798692,38.37803)"
       id="g1630"><path
         d="m 0,0 -2.686,-1.63 c 4.346,-5.674 9.417,-7.968 14.637,-8.571 l 0,3.17 C 8.602,-6.943 3.079,-4.497 0,0"
         id="path1632"
         style="fill:#00529b;fill-opacity:1;fill-rule:evenodd;stroke:none" /></g><g
       transform="matrix(0.99493448,0,0,1.2644316,10.126298,5.0640511)"
       id="g1634"><path
         d="m 0,0 2.686,-1.6 c 1.237,1.811 2.899,3.259 4.618,4.376 2.565,1.63 5.312,2.536 7.333,2.625 l 0,3.14 C 12.133,8.239 9.688,7.574 7.304,6.336 4.738,5.009 2.264,2.958 0,0"
         id="path1636"
         style="fill:#ce1041;fill-opacity:1;fill-rule:nonzero;stroke:none" /></g><g
       transform="matrix(0.99493448,0,0,1.2644316,5.6222297,8.4223815)"
       id="g1638"><path
         d="m 0,0 2.656,-1.479 c 2.173,3.349 5.493,6.097 9.175,7.756 2.354,1.087 4.859,1.72 7.334,1.872 l 0,3.077 C 16.66,11.106 14.185,10.502 11.831,9.566 6.972,7.575 2.687,4.075 0,0"
         id="path1640"
         style="fill:#ce1041;fill-opacity:1;fill-rule:nonzero;stroke:none" /></g><g
       transform="matrix(0.99493448,0,0,1.2644316,17.393299,27.693583)"
       id="g1642"><path
         d="m 0,0 c -3.501,-1.207 -7.334,-3.109 -10.171,-5.554 -2.353,-2.112 -4.738,-4.316 -6.217,-6.942 l 2.656,-1.539 c 1.086,2.356 4.618,6.006 8.783,8.511 1.629,0.967 3.319,1.721 4.949,2.324 3.139,1.116 5.945,1.571 7.334,1.449 l 0,3.138 C 5.614,1.479 2.928,0.965 0,0"
         id="path1644"
         style="fill:#ce1041;fill-opacity:1;fill-rule:nonzero;stroke:none" /></g><g
       transform="matrix(0.99493448,0,0,1.2644316,30.671695,11.924857)"
       id="g1646"><path
         d="m 0,0 0,13.798 3.803,0 0,-5.469 4.65,0 0,5.469 3.787,0 0,-13.798 -3.787,0 0,5.649 -4.662,0 L 3.791,0 0,0"
         id="path1648"
         style="fill:#00529b;fill-opacity:1;fill-rule:nonzero;stroke:none" /></g><g
       transform="matrix(0.99493448,0,0,1.2644316,49.253091,24.406061)"
       id="g1650"><path
         d="m 0,0 c -2.995,0 -5.556,-1.542 -5.556,-5.074 0,-3.545 2.561,-5.079 5.556,-5.079 2.975,0 5.541,1.534 5.541,5.079 C 5.541,-1.542 2.975,0 0,0 m -1.852,-5.074 c 0,1.353 0.326,2.981 1.852,2.981 1.514,0 1.83,-1.628 1.83,-2.981 0,-1.358 -0.316,-2.977 -1.83,-2.977 -1.526,0 -1.852,1.619 -1.852,2.977"
         id="path1652"
         style="fill:#00529b;fill-opacity:1;fill-rule:nonzero;stroke:none" /></g><g
       transform="matrix(0.99493448,0,0,1.2644316,109.38991,24.406061)"
       id="g1654"><path
         d="m 0,0 c -2.995,0 -5.557,-1.542 -5.557,-5.074 0,-3.545 2.562,-5.079 5.557,-5.079 2.975,0 5.541,1.534 5.541,5.079 C 5.541,-1.542 2.975,0 0,0 m -1.853,-5.074 c 0,1.353 0.326,2.981 1.853,2.981 1.514,0 1.829,-1.628 1.829,-2.981 0,-1.358 -0.315,-2.977 -1.829,-2.977 -1.527,0 -1.853,1.619 -1.853,2.977"
         id="path1656"
         style="fill:#00529b;fill-opacity:1;fill-rule:nonzero;stroke:none" /></g><g
       transform="matrix(0.99493448,0,0,1.2644316,59.290985,22.709194)"
       id="g1658"><path
         d="M 0,0 C 0.826,0.956 1.784,1.342 3.004,1.342 5.054,1.342 6.578,0 6.578,-2.12 l 0,-6.409 -3.612,0 0,5.634 C 2.92,-1.962 2.685,-0.948 1.566,-0.948 -0.224,-0.948 0,-2.911 0,-3.031 l 0,-5.498 -3.62,0 0,7.118 c 0,0.86 -0.016,1.427 -0.116,2.473 l 3.682,0 L 0,0"
         id="path1660"
         style="fill:#00529b;fill-opacity:1;fill-rule:nonzero;stroke:none" /></g><g
       transform="matrix(0.99493448,0,0,1.2644316,119.36612,22.709194)"
       id="g1662"><path
         d="M 0,0 C 0.828,0.956 1.785,1.342 3.006,1.342 5.057,1.342 6.58,0 6.58,-2.12 l 0,-6.409 -3.613,0 0,5.634 C 2.922,-1.962 2.687,-0.948 1.566,-0.948 -0.223,-0.948 0,-2.911 0,-3.031 l 0,-5.498 -3.617,0 0,7.118 c 0,0.86 -0.017,1.427 -0.118,2.473 l 3.682,0 L 0,0"
         id="path1664"
         style="fill:#00529b;fill-opacity:1;fill-rule:nonzero;stroke:none" /></g><g
       transform="matrix(0.99493448,0,0,1.2644316,137.64008,24.05202)"
       id="g1666"><path
         d="m 0,0 -3.537,0 -0.101,-1.398 -0.042,0 c -0.554,1.121 -1.583,1.678 -2.918,1.678 -2.773,0 -4.414,-1.981 -4.414,-4.773 0,-2.553 1.467,-4.783 4.221,-4.783 1.219,0 2.518,0.464 3.111,1.527 l 0.042,0 0,-1.087 c 0,-1.412 -0.289,-2.449 -1.891,-2.449 -0.381,0 -0.764,0.083 -1.045,0.247 -0.27,0.186 -0.457,0.478 -0.478,0.95 l -3.391,0 c 0,-2.778 2.812,-3.286 4.931,-3.286 1.204,0 3.195,0.396 4.165,1.338 1.121,1.071 1.283,2.139 1.347,3.776 L 0,0 z m -3.638,-4.493 c 0,-1.196 -0.324,-2.68 -1.816,-2.68 -1.482,0 -1.821,1.484 -1.821,2.68 0,1.187 0.339,2.68 1.821,2.68 1.492,0 1.816,-1.493 1.816,-2.68"
         id="path1668"
         style="fill:#00529b;fill-opacity:1;fill-rule:nonzero;stroke:none" /></g><g
       transform="matrix(0.99493448,0,0,1.2644316,77.683344,24.05202)"
       id="g1670"><path
         d="m 0,0 -3.537,0 -0.101,-1.398 -0.043,0 c -0.556,1.121 -1.583,1.678 -2.917,1.678 -2.774,0 -4.413,-1.981 -4.413,-4.773 0,-2.553 1.465,-4.783 4.22,-4.783 1.217,0 2.517,0.464 3.11,1.527 l 0.043,0 0,-1.087 c 0,-1.412 -0.289,-2.449 -1.89,-2.449 -0.382,0 -0.765,0.083 -1.046,0.247 -0.27,0.186 -0.459,0.478 -0.479,0.95 l -3.391,0 c 0,-2.778 2.813,-3.286 4.931,-3.286 1.204,0 3.195,0.396 4.167,1.338 1.118,1.071 1.28,2.139 1.346,3.776 L 0,0 z m -3.638,-4.493 c 0,-1.196 -0.324,-2.68 -1.817,-2.68 -1.482,0 -1.82,1.484 -1.82,2.68 0,1.187 0.338,2.68 1.82,2.68 1.493,0 1.817,-1.493 1.817,-2.68"
         id="path1672"
         style="fill:#00529b;fill-opacity:1;fill-rule:nonzero;stroke:none" /></g><g
       transform="matrix(0.99493448,0,0,1.2644316,82.539619,11.924857)"
       id="g1674"><path
         d="m 0,0 0,13.798 3.783,0 0,-11.126 6.213,0 L 9.996,0 0,0"
         id="path1676"
         style="fill:#00529b;fill-opacity:1;fill-rule:nonzero;stroke:none" /></g><g
       transform="matrix(0.99493448,0,0,1.2644316,103.08999,17.069829)"
       id="g1678"><path
         d="m 0,0 c 0,3.565 -1.247,5.802 -5.137,5.802 -2.873,0 -5.135,-1.715 -5.135,-4.758 0,-3.768 1.52,-5.394 5.356,-5.394 1.123,0 2.199,0.209 3.023,0.743 0.92,0.517 1.697,1.435 1.816,2.665 l -3.355,0 c -0.139,-0.894 -0.762,-1.365 -1.777,-1.365 -1.342,0 -1.67,1.067 -1.651,2.307 L 0,0 z m -6.79,1.939 c 0.1,1.095 0.411,1.994 1.653,2.05 0.552,0.032 0.974,-0.215 1.264,-0.613 0.288,-0.393 0.441,-0.925 0.441,-1.437 l -3.358,0"
         id="path1680"
         style="fill:#00529b;fill-opacity:1;fill-rule:nonzero;stroke:none" /></g><g
       transform="matrix(0.99493448,0,0,1.2644316,149.0291,22.578957)"
       id="g1682"><path
         d="m 0,0 c -0.296,-0.097 -0.827,-0.153 -1.568,-0.153 l -2.622,0 0,3.886 2.415,0 C -0.867,3.734 -0.226,3.667 0.121,3.549 0.47,3.427 0.729,3.216 0.916,2.894 1.108,2.57 1.204,2.195 1.205,1.757 1.204,1.296 1.1,0.925 0.901,0.632 0.702,0.341 0.407,0.131 0,0 M -0.027,-6.434 C -0.228,-6.475 -0.609,-6.498 -1.15,-6.497 l -3.04,0 0,4.457 2.815,0 c 0.801,0 1.413,-0.078 1.821,-0.225 0.406,-0.143 0.716,-0.388 0.945,-0.741 0.227,-0.356 0.342,-0.772 0.344,-1.264 0,-0.42 -0.082,-0.784 -0.238,-1.098 C 1.336,-5.686 1.137,-5.92 0.899,-6.079 0.655,-6.243 0.349,-6.362 -0.027,-6.434 z m 3.133,4.322 c -0.383,0.543 -0.923,0.937 -1.592,1.196 0.498,0.309 0.893,0.695 1.159,1.164 0.306,0.536 0.461,1.116 0.461,1.725 0,0.655 -0.173,1.284 -0.517,1.88 -0.345,0.6 -0.831,1.05 -1.443,1.34 -0.615,0.288 -1.415,0.429 -2.402,0.429 l -4.918,0 0,-14.01 4.996,0 c 0.82,0 1.518,0.078 2.094,0.235 0.572,0.157 1.056,0.391 1.445,0.706 0.39,0.315 0.713,0.76 0.973,1.326 0.26,0.571 0.39,1.191 0.39,1.851 0,0.823 -0.214,1.547 -0.646,2.158"
         id="path1684"
         style="fill:#ce1041;fill-opacity:1;fill-rule:nonzero;stroke:none" /></g><g
       transform="matrix(0.99493448,0,0,1.2644316,160.38027,18.254601)"
       id="g1686"><path
         d="m 0,0 0,-0.422 c 0,-0.72 -0.081,-1.268 -0.239,-1.628 -0.207,-0.466 -0.535,-0.836 -0.975,-1.105 -0.443,-0.268 -0.958,-0.406 -1.531,-0.406 -0.564,0 -0.998,0.139 -1.285,0.413 -0.29,0.276 -0.429,0.611 -0.429,1.025 0,0.271 0.064,0.51 0.197,0.731 0.131,0.217 0.312,0.379 0.555,0.495 0.252,0.118 0.695,0.229 1.32,0.325 1.019,0.159 1.82,0.35 2.387,0.572 m 2.306,-4.725 c -0.188,0.365 -0.315,0.752 -0.38,1.152 -0.064,0.404 -0.097,1.396 -0.097,2.946 l 0,2.243 C 1.829,2.379 1.802,2.893 1.75,3.192 1.653,3.671 1.483,4.073 1.242,4.391 0.998,4.711 0.617,4.977 0.109,5.184 -0.393,5.39 -1.051,5.494 -1.846,5.494 -2.649,5.494 -3.364,5.374 -3.97,5.135 -4.591,4.893 -5.073,4.542 -5.4,4.091 -5.727,3.643 -5.963,3.054 -6.105,2.333 l -0.028,-0.136 1.771,-0.263 0.028,0.118 c 0.16,0.67 0.404,1.143 0.726,1.398 0.322,0.257 0.84,0.389 1.537,0.389 0.743,0 1.309,-0.18 1.68,-0.535 0.265,-0.253 0.4,-0.709 0.4,-1.352 C 0.009,1.897 0.006,1.784 0.002,1.605 -0.581,1.398 -1.475,1.217 -2.657,1.064 -3.275,0.982 -3.746,0.896 -4.057,0.806 -4.483,0.678 -4.871,0.486 -5.213,0.237 c -0.346,-0.256 -0.629,-0.597 -0.84,-1.015 -0.213,-0.42 -0.322,-0.887 -0.322,-1.392 0,-0.861 0.285,-1.58 0.851,-2.136 0.562,-0.554 1.375,-0.836 2.408,-0.836 0.625,0 1.217,0.112 1.762,0.337 0.486,0.198 0.994,0.527 1.515,0.98 0.057,-0.378 0.154,-0.72 0.29,-1.016 l 0.035,-0.077 1.92,0 -0.1,0.193"
         id="path1688"
         style="fill:#ce1041;fill-opacity:1;fill-rule:nonzero;stroke:none" /></g><g
       transform="matrix(0.99493448,0,0,1.2644316,171.87376,22.047896)"
       id="g1690"><path
         d="M 0,0 -0.002,0.002 C -0.096,0.5 -0.265,0.935 -0.508,1.304 -0.755,1.68 -1.127,1.98 -1.611,2.206 -2.097,2.432 -2.629,2.544 -3.205,2.544 -4.377,2.547 -5.324,2.086 -6.007,1.189 l 0,1.129 -1.681,0 0,-10.286 1.835,0 0,5.604 c -0.001,1.269 0.246,2.105 0.683,2.514 0.463,0.44 0.999,0.652 1.636,0.652 0.398,0 0.73,-0.095 1.017,-0.284 0.288,-0.19 0.482,-0.437 0.597,-0.754 l 0,0.002 c 0.112,-0.316 0.174,-0.824 0.174,-1.506 l 0,-6.228 1.835,0 0,6.293 C 0.088,-0.885 0.061,-0.333 0,0"
         id="path1692"
         style="fill:#ce1041;fill-opacity:1;fill-rule:nonzero;stroke:none" /></g><g
       transform="matrix(0.99493448,0,0,1.2644316,178.25726,19.05878)"
       id="g1694"><path
         d="m 0,0 4.065,4.067 -2.451,0 -3.528,-3.645 0,8.009 -1.853,0 0,-13.989 1.853,0 0,5.26 3.818,-5.305 2.387,0 L 0,0"
         id="path1696"
         style="fill:#ce1041;fill-opacity:1;fill-rule:nonzero;stroke:none" /></g></g></svg>