<svg version="1.2" xmlns="http://www.w3.org/2000/svg" viewBox="0 0 1575 682" width="1575" height="682">
	<title>Public_Bank_Berhad_logo-svg</title>
	<style>
		.s0 { fill: #e42126 } 
	</style>
	<g id="g4192">
		<g id="g4180">
			<path id="path16" fill-rule="evenodd" class="s0" d="m134.6 609.4c0 17.2-1.8 25.9-6.9 32.8-8.7 8.6-17.3 10.3-36.3 10.3l-53.4-1.7c-1.8 0-1.8 1.7-3.5 1.7 0 0 0 25.9 0 27.6h-34.5v-110.4h91.4c19 0 27.6 0 34.5 6.9 6.9 8.6 8.7 13.8 8.7 32.8zm-44.9 15.5c3.5 0 6.9 0 10.4-3.5 1.7-3.4 3.4-6.9 3.4-12 0-3.5 0-6.9-3.4-10.4-5.2-3.4-6.9-3.4-10.4-3.4-1.7 0-53.5 0-53.5 0-1.7 1.7-1.7 1.7-1.7 3.4v22.4c0 1.8 0 1.8 1.7 3.5 0 0 51.8 0 53.5 0zm79.4 46.6c-6.9-6.9-10.4-13.8-10.4-24.2v-77.6h32.8v70.7c0 13.8 27.6 13.8 39.7 13.8 10.3 0 34.5 1.8 34.5-13.8v-70.7h34.5v77.6c0 10.4-3.5 15.6-8.7 22.5-10.3 12.1-43.1 10.3-60.3 10.3-19 0-53.5 1.8-62.1-8.6zm284.6-94.9c5.2 6.9 6.9 12 6.9 20.7 0 6.9-1.7 15.5-3.5 19-5.1 6.9-12 6.9-12 8.6 0 1.7 8.6 1.7 12 5.2 5.2 6.9 7 12.1 7 19 0 10.3-1.8 19-8.7 25.9-6.9 5.1-22.4 5.1-34.5 5.1h-98.3v-110.4h96.6c13.8 0 29.3 0 34.5 6.9zm-24.2 27.6c0-5.2-3.4-10.4-10.3-10.4h-63.8v20.7h63.8c6.9 0 10.3-5.1 10.3-10.3zm3.5 41.4c0-6.9-3.5-10.3-13.8-10.3h-63.8v18.9h65.5c10.4 0 12.1-3.4 12.1-8.6zm165.6 8.6v25.9h-115.6v-110.4h34.5v84.5zm22.5-84.5h34.5v110.4h-34.5zm194.9 69.1c0 0 3.4 22.4-5.2 31.1-8.6 8.6-37.9 10.3-62.1 10.3-24.1 0-55.2-1.7-62.1-10.3-8.6-13.9-8.6-29.4-8.6-44.9 0-17.3 1.7-34.5 10.3-46.6 6.9-6.9 36.3-8.7 60.4-8.7 25.9 0 51.8 1.8 58.7 8.7 8.6 10.3 6.9 29.3 6.9 29.3h-29.4c0 0 0-3.4-3.4-8.6-5.2-3.5-19-3.5-32.8-3.5-15.5 0-29.3 0-34.5 5.2-3.4 5.2-5.2 15.5-5.2 24.2 0 8.6 0 17.2 5.2 24.1 3.5 5.2 19 5.2 34.5 5.2 13.8 0 27.6 0 32.8-3.4 5.2-5.2 3.4-12.1 3.4-12.1zm219.1-62.2c6.9 7 6.9 12.1 6.9 20.8 0 6.9-1.7 15.5-3.4 18.9-5.2 7-12.1 7-12.1 8.7 0 1.7 8.6 1.7 12.1 5.2 5.1 6.9 6.9 12 6.9 18.9 0 10.4-1.8 19-8.7 25.9-6.9 5.2-22.4 5.2-34.5 5.2h-96.6v-110.5h94.9c13.8 0 29.3 0 34.5 6.9zm-24.1 27.7c0-5.2-3.5-10.4-10.4-10.4h-63.8v20.7h63.8c6.9 0 10.4-5.2 10.4-10.3zm3.4 41.4c0-6.9-3.4-10.4-13.8-10.4h-63.8v19h65.5c10.4 0 12.1-3.4 12.1-8.6zm41.4 34.5l62.1-110.5h50.1l58.6 110.5h-36.2l-12.1-22.4h-74.2l-12.1 22.4zm62.1-44.9c0 1.8 0 1.8 1.8 1.8h44.8c1.8 0 1.8 0 1.8-1.8 1.7 0 1.7-1.7 1.7-1.7l-19-38c0-1.7-1.7-1.7-1.7-1.7 0-1.7-1.8-1.7-1.8-1.7h-5.1c0 0-1.7 0-1.7 1.7 0 0 0 0-1.8 1.7l-19 36.3c0 1.7-1.7 1.7 0 3.4zm167.4-34.5c-1.7-3.4-1.7-3.4-5.2-3.4-3.4 0-3.4 0-3.4 3.4v79.4h-31.1v-110.5h56.9l55.2 79.4c1.8 3.5 3.5 3.5 6.9 3.5 1.8 0 1.8 0 1.8-3.5v-79.4h31v110.5h-56.9zm172.5 39.7v39.7h-32.8v-110.5h32.8v39.7c1.7 1.8 3.4 1.8 3.4 1.8h17.3l43.1-41.5h48.3l-63.8 53.6 69 56.9h-48.3l-50-43.1c-1.8 0-17.3 0-19 0 0 1.7 0 1.7 0 3.4z"/>
		</g>
		<path id="path36" fill-rule="evenodd" class="s0" d="m969.5 219.2l-15.5 13.8 15.5 13.9v113.9l-105.2 103.6h-158.7l-107-105.3v-110.5l17.3-15.6-17.3-15.5v-110.5l108.7-107h155.2l107 105.3zm-55.2 84.6l-15.5-15.6-34.5 34.6h-158.7l-34.5-32.8-13.8 13.8 127.6 127.7zm-129.4-13.8l58.7-56.9-58.7-57-56.9 57zm129.4-127.8l-129.4-127.7-127.6 127.7 13.8 15.5 36.2-36.2h155.2l36.3 34.5z"/>
	</g>
</svg>