<?xml version="1.0" encoding="utf-8"?>
<!-- Generator: Adobe Illustrator 27.5.0, SVG Export Plug-In . SVG Version: 6.00 Build 0)  -->
<svg version="1.1" id="Layer_1" xmlns="http://www.w3.org/2000/svg" xmlns:xlink="http://www.w3.org/1999/xlink" x="0px" y="0px"
	 viewBox="0 0 1080 270.34" style="enable-background:new 0 0 1080 270.34;" xml:space="preserve">
<style type="text/css">
	.st0{fill:#1B77F6;}
	.st1{fill:#FFFFFF;}
	.st2{fill:#0A2947;}
</style>
<g>
	<g>
		<path class="st0" d="M161.33,122.9c0,17.13-11.15,30.04-27.21,32.46V90.22C150.17,92.65,161.33,105.65,161.33,122.9z"/>
		<path class="st0" d="M128.58,26.1c-60.25,0-109.07,48.83-109.07,109.07s48.82,109.07,109.07,109.07
			c60.23,0,109.07-48.83,109.07-109.07S188.81,26.1,128.58,26.1z M175.4,197.92l-0.03,0.01l1.82,4.9l-16.14-0.01l-11.94-34.19
			c-4.71,1.53-9.76,2.34-14.99,2.41v32.11h-15.28v-32.08h-7.66v0.03h-8.19L91.9,202.82l-16.14,0.01l1.82-4.9l-0.03-0.01l9.37-26.82
			l4.32-12.39l0.06-0.15l0.03-0.15l0.06,0.03l1.59-1.59c0.7-0.7,1.66-1.09,2.63-1.09h23.24V89.8h-7.66v-0.06H78.83L94.05,74.5h24.78
			V56.02h15.28v18.5c13.09,0.07,25.04,4.97,33.71,13.82c8.74,8.91,13.55,21.19,13.55,34.57c0,13.29-4.83,25.49-13.58,34.35
			c-1.59,1.6-3.27,3.07-5.05,4.39L175.4,197.92z"/>
		<path class="st1" d="M175.4,197.92l-12.65-36.28c1.77-1.32,3.46-2.79,5.05-4.39c8.75-8.86,13.58-21.06,13.58-34.35
			c0-13.38-4.81-25.65-13.55-34.57c-8.67-8.84-20.62-13.74-33.71-13.82v-18.5h-15.28V74.5H94.05L78.83,89.74h32.34v0.06h7.66v65.98
			H95.59c-0.97,0-1.93,0.39-2.63,1.09l-1.59,1.59l-0.06-0.03l-0.03,0.15l-0.06,0.15l-4.32,12.39l-9.37,26.82l0.03,0.01l-1.82,4.9
			l16.14-0.01l11.08-31.72h8.19v-0.03h7.66v32.08h15.28v-32.11c5.24-0.07,10.28-0.89,14.99-2.41l11.94,34.19l16.14,0.01l-1.82-4.9
			L175.4,197.92z M134.12,155.35V90.22c16.05,2.43,27.21,15.43,27.21,32.68C161.33,140.03,150.17,152.94,134.12,155.35z"/>
	</g>
	<g>
		<path class="st2" d="M353.06,128.82c-5.33,6.22-12.34,10.32-21.01,12.31c0,0,0,0,0,0l17.8,25.33c3.59,5.11-0.06,12.15-6.31,12.15
			h0c-4.65,0-9.01-2.27-11.68-6.07l-21.14-30.15h-17.25v26.42c0,5.41-4.39,9.8-9.8,9.8l0,0c-5.41,0-9.8-4.39-9.8-9.8V83.97
			c0-7.23,5.86-13.1,13.1-13.1h33.79c7.63,0,14.51,1.52,20.62,4.55c6.12,3.03,10.92,7.27,14.43,12.7c3.5,5.44,5.25,11.6,5.25,18.5
			C361.06,115.2,358.39,122.6,353.06,128.82z M293.47,124.35h24.93c6.79,0,12.28-1.59,16.46-4.78c4.18-3.19,6.27-7.5,6.27-12.94
			c0-5.43-2.09-9.75-6.27-12.94c-4.18-3.19-9.67-4.78-16.46-4.78h-24.93V124.35z"/>
		<g>
			<path class="st2" d="M843.16,70.87c7.76,0,14.76,1.54,20.98,4.63c6.22,3.09,11.11,7.39,14.68,12.92
				c3.56,5.53,5.34,11.81,5.34,18.83s-1.78,13.3-5.34,18.83c-3.56,5.53-8.46,9.84-14.68,12.92c-6.22,3.09-13.22,4.63-20.98,4.63
				H815.4v26.88c0,5.51-4.46,9.97-9.97,9.97l0,0c-5.51,0-9.97-4.46-9.97-9.97V83.98c0-7.24,5.87-13.11,13.11-13.11H843.16z
				 M857.52,120.41c4.25-3.24,6.38-7.63,6.38-13.16c0-5.53-2.13-9.92-6.38-13.16c-4.26-3.24-9.84-4.87-16.75-4.87H815.4v36.06h25.37
				C847.68,125.28,853.27,123.66,857.52,120.41z"/>
		</g>
		<path class="st2" d="M379.17,82.01c-2.14-2.2-3.21-4.76-3.21-7.68c0-3.97,1.97-7.22,5.91-9.74c0.33-0.21,0.71-0.38,1.09-0.49
			c4.68-1.31,8.52-0.43,11.5,2.63c2.09,2.14,3.14,4.68,3.14,7.6c0,2.93-1.05,5.49-3.14,7.68c-2.09,2.2-4.6,3.29-7.53,3.29
			C383.9,85.3,381.31,84.2,379.17,82.01z M381.06,97.53h11.74c2.04,0,3.7,1.65,3.7,3.7v73.94c0,1.9-1.54,3.43-3.43,3.43H380.8
			c-1.9,0-3.43-1.54-3.43-3.43v-73.94C377.37,99.19,379.02,97.53,381.06,97.53z"/>
		<path class="st2" d="M474.12,99.65c4.6,2.67,8.18,6.38,10.74,11.13c2.56,4.76,3.84,10.17,3.84,16.23v48.09
			c0,1.93-1.57,3.5-3.5,3.5h-11.67c-1.93,0-3.5-1.57-3.5-3.5v-44.33c0-5.54-1.6-10.06-4.78-13.56c-3.19-3.5-7.29-5.25-12.31-5.25
			c-5.54,0-10.19,1.7-13.96,5.1c-3.76,3.4-5.65,7.55-5.65,12.47v45.35c0,2.06-1.67,3.73-3.73,3.73h-11.67
			c-2.06,0-3.73-1.67-3.73-3.73V97.53h14.3c2.67,0,4.83,2.16,4.83,4.83v1.49c0,1.37,1.67,2,2.6,0.99c2.15-2.33,4.76-4.27,7.83-5.82
			c4.44-2.25,9.33-3.37,14.66-3.37C464.29,95.65,469.51,96.98,474.12,99.65z"/>
		<path class="st2" d="M584.35,97.53v72.44c0,6.9-1.8,13.04-5.41,18.43c-3.61,5.38-8.63,9.59-15.05,12.62
			c-6.43,3.03-13.72,4.55-21.87,4.55c-6.8,0-13.28-0.99-19.44-2.98c-6.17-1.99-11.29-4.6-15.37-7.84l2.65-5.24
			c1.92-3.8,6.34-5.59,10.36-4.21l4.94,1.69c4.44,1.51,9.07,2.27,13.88,2.27c7.94,0,14.27-1.78,18.97-5.33
			c4.7-3.55,7.06-8.41,7.06-14.58l0-10.35c-3.24,4.39-7.27,7.76-12.07,10.11c-4.81,2.35-10.04,3.53-15.68,3.53
			c-6.9,0-13.12-1.65-18.66-4.94c-5.54-3.29-9.88-7.87-13.01-13.72c-3.14-5.85-4.71-12.49-4.71-19.91c0-7.42,1.57-14.03,4.71-19.84
			c3.14-5.8,7.47-10.35,13.01-13.64c5.54-3.29,11.76-4.94,18.66-4.94c5.75,0,11.08,1.23,15.99,3.68c3.59,1.8,6.66,4.09,9.19,6.86
			c0.91,1,2.57,0.36,2.57-1v-1.58c0-3.36,2.72-6.08,6.08-6.08H584.35z M558.79,150.06c4.18-4.18,6.27-9.51,6.27-15.99
			c0-6.48-2.09-11.79-6.27-15.92c-4.18-4.13-9.51-6.19-15.99-6.19c-6.38,0-11.66,2.07-15.84,6.19c-4.18,4.13-6.27,9.44-6.27,15.92
			c0,6.48,2.06,11.81,6.19,15.99c4.13,4.18,9.43,6.27,15.92,6.27C549.28,156.34,554.61,154.25,558.79,150.06z"/>
		<path class="st2" d="M681.57,97.53v72.44c0,6.9-1.8,13.04-5.41,18.43c-3.61,5.38-8.63,9.59-15.05,12.62
			c-6.43,3.03-13.72,4.55-21.87,4.55c-6.8,0-13.28-0.99-19.44-2.98c-6.17-1.99-11.29-4.6-15.37-7.84l2.65-5.24
			c1.92-3.8,6.34-5.59,10.36-4.21l4.94,1.69c4.44,1.51,9.07,2.27,13.88,2.27c7.94,0,14.27-1.78,18.97-5.33
			c4.7-3.55,7.06-8.41,7.06-14.58l0-10.35c-3.24,4.39-7.27,7.76-12.07,10.11c-4.81,2.35-10.04,3.53-15.68,3.53
			c-6.9,0-13.12-1.65-18.66-4.94c-5.54-3.29-9.88-7.87-13.01-13.72c-3.14-5.85-4.71-12.49-4.71-19.91c0-7.42,1.57-14.03,4.71-19.84
			c3.14-5.8,7.47-10.35,13.01-13.64c5.54-3.29,11.76-4.94,18.66-4.94c5.75,0,11.08,1.23,15.99,3.68c3.59,1.8,6.66,4.09,9.19,6.86
			c0.91,1,2.57,0.36,2.57-1v-1.58c0-3.36,2.72-6.08,6.08-6.08H681.57z M656.01,150.06c4.18-4.18,6.27-9.51,6.27-15.99
			c0-6.48-2.09-11.79-6.27-15.92c-4.18-4.13-9.51-6.19-15.99-6.19c-6.38,0-11.66,2.07-15.84,6.19c-4.18,4.13-6.27,9.44-6.27,15.92
			c0,6.48,2.06,11.81,6.19,15.99c4.13,4.18,9.43,6.27,15.92,6.27C646.5,156.34,651.83,154.25,656.01,150.06z"/>
		<path class="st2" d="M783.32,174.02c0.01,0.02,0,0.05-0.01,0.06c-2.29,1.98-4.98,3.54-8.05,4.68c-3.08,1.15-6.19,1.73-9.33,1.73
			c-6.69,0-12.15-2.2-16.39-6.59c-4.24-4.39-6.35-9.98-6.35-16.78v-43.7c0-0.03-0.02-0.05-0.05-0.05h-11.66
			c-0.03,0-0.05-0.02-0.05-0.05V97.58c0-0.03,0.02-0.05,0.05-0.05h11.66c0.03,0,0.05-0.02,0.05-0.05V78.73
			c0-1.92,1.55-3.47,3.47-3.47h11.56c1.92,0,3.47,1.55,3.47,3.47v18.75c0,0.03,0.02,0.05,0.05,0.05h18.25
			c0.03,0,0.05,0.02,0.05,0.05v15.74c0,0.03-0.02,0.05-0.05,0.05h-18.25c-0.03,0-0.05,0.02-0.05,0.05v41.35
			c0,2.72,0.78,4.97,2.35,6.74c1.57,1.78,3.45,2.67,5.65,2.67c1.57,0,3.11-0.29,4.63-0.86l0,0c2.1-0.8,4.53,0.24,5.41,2.3
			L783.32,174.02z"/>
		<path class="st2" d="M955.27,104.98c6.22,6.22,9.33,14.5,9.33,24.85v48.77h-14.93c-2.06,0-3.73-1.67-3.73-3.73l0-2.09
			c0-1.28-1.53-1.98-2.47-1.1c-2.48,2.33-5.43,4.25-8.82,5.75c-4.6,2.04-9.31,3.06-14.11,3.06c-5.75,0-10.9-1.07-15.45-3.21
			c-4.55-2.14-8.13-5.17-10.74-9.09c-2.61-3.92-3.92-8.44-3.92-13.56c0-5.23,1.46-9.88,4.39-13.96c2.93-4.08,6.9-7.26,11.92-9.56
			c5.02-2.3,10.56-3.45,16.62-3.45c7.21,0,14.74,1.41,22.58,4.23v-2.04c0-5.33-1.6-9.75-4.78-13.25c-3.19-3.5-8.18-5.25-14.98-5.25
			c-6.48,0-13.8,2.04-21.95,6.11c0,0,0,0-0.01,0l-2.94-5.96c-2.06-4.16-0.07-9.17,4.26-10.85c8.56-3.33,16.7-4.99,24.4-4.99
			C940.61,95.65,949.05,98.76,955.27,104.98z M938.34,162.92c4.13-2.4,6.67-5.65,7.61-9.72l0-9.25c-6.27-1.98-12.86-2.98-19.76-2.98
			c-4.92,0-9.04,1.23-12.39,3.68c-3.35,2.46-5.02,5.57-5.02,9.33c0,3.76,1.51,6.8,4.55,9.09c3.03,2.3,6.85,3.45,11.45,3.45
			C929.69,166.53,934.21,165.33,938.34,162.92z"/>
		<path class="st2" d="M989.61,205.73c-2.72-0.62-5.15-1.48-7.3-2.55c-0.64-0.32-0.95-1.08-0.74-1.77l0.94-3.19
			c1.13-3.84,4.66-6.47,8.66-6.45l4.47,0.01c4.7,0,8.31-2.04,10.82-6.12l2.98-6.43l-33.47-79.62c-0.41-0.99,0.31-2.07,1.38-2.07
			h1.73c9.8,0,18.6,6.01,22.17,15.13l17.76,45.4l16.97-45.81c3.28-8.85,11.72-14.72,21.15-14.72h1.86c1.06,0,1.78,1.07,1.39,2.05
			l-33.68,84.67c-5.75,14.84-14.95,22.37-27.6,22.58C995.96,206.83,992.8,206.46,989.61,205.73z"/>
		<path class="st2" d="M701.25,82.01c-2.14-2.2-3.21-4.76-3.21-7.68c0-3.97,1.97-7.22,5.91-9.74c0.33-0.21,0.71-0.38,1.09-0.49
			c4.68-1.31,8.52-0.43,11.5,2.63c2.09,2.14,3.14,4.68,3.14,7.6c0,2.93-1.05,5.49-3.14,7.68c-2.09,2.2-4.6,3.29-7.53,3.29
			C705.98,85.3,703.39,84.2,701.25,82.01z M703.14,97.53h11.74c2.04,0,3.7,1.65,3.7,3.7v73.94c0,1.9-1.54,3.43-3.43,3.43h-12.27
			c-1.9,0-3.43-1.54-3.43-3.43v-73.94C699.45,99.19,701.1,97.53,703.14,97.53z"/>
	</g>
</g>
</svg>
