<?xml version="1.0" encoding="utf-8"?>
<svg version="1.1" xmlns="http://www.w3.org/2000/svg" xmlns:xlink="http://www.w3.org/1999/xlink"
	 viewBox="19 26 219 219" xml:space="preserve">
<style type="text/css">
	.mst0{fill:#1B77F6;}
	.mst1{fill:#FFFFFF;}
</style>
<g>
	<path class="mst0" d="M161.33,122.9c0,17.13-11.15,30.04-27.21,32.46V90.22C150.17,92.65,161.33,105.65,161.33,122.9z"/>
	<path class="mst0" d="M128.58,26.1c-60.25,0-109.07,48.83-109.07,109.07s48.82,109.07,109.07,109.07
		c60.23,0,109.07-48.83,109.07-109.07S188.81,26.1,128.58,26.1z M175.4,197.92l-0.03,0.01l1.82,4.9l-16.14-0.01l-11.94-34.19
		c-4.71,1.53-9.76,2.34-14.99,2.41v32.11h-15.28v-32.08h-7.66v0.03h-8.19L91.9,202.82l-16.14,0.01l1.82-4.9l-0.03-0.01l9.37-26.82
		l4.32-12.39l0.06-0.15l0.03-0.15l0.06,0.03l1.59-1.59c0.7-0.7,1.66-1.09,2.63-1.09h23.24V89.8h-7.66v-0.06H78.83L94.05,74.5h24.78
		V56.02h15.28v18.5c13.09,0.07,25.04,4.97,33.71,13.82c8.74,8.91,13.55,21.19,13.55,34.57c0,13.29-4.83,25.49-13.58,34.35
		c-1.59,1.6-3.27,3.07-5.05,4.39L175.4,197.92z"/>
	<path class="mst1" d="M175.4,197.92l-12.65-36.28c1.77-1.32,3.46-2.79,5.05-4.39c8.75-8.86,13.58-21.06,13.58-34.35
		c0-13.38-4.81-25.65-13.55-34.57c-8.67-8.84-20.62-13.74-33.71-13.82v-18.5h-15.28V74.5H94.05L78.83,89.74h32.34v0.06h7.66v65.98
		H95.59c-0.97,0-1.93,0.39-2.63,1.09l-1.59,1.59l-0.06-0.03l-0.03,0.15l-0.06,0.15l-4.32,12.39l-9.37,26.82l0.03,0.01l-1.82,4.9
		l16.14-0.01l11.08-31.72h8.19v-0.03h7.66v32.08h15.28v-32.11c5.24-0.07,10.28-0.89,14.99-2.41l11.94,34.19l16.14,0.01l-1.82-4.9
		L175.4,197.92z M134.12,155.35V90.22c16.05,2.43,27.21,15.43,27.21,32.68C161.33,140.03,150.17,152.94,134.12,155.35z"/>
</g>
</svg>
