<svg xmlns="http://www.w3.org/2000/svg" viewBox="0 0 1247.61905 309.52381"><defs><style>.a{fill:#ee4d2d;}.b{fill:none;}</style></defs><title>shoppeepaylogo-freelogovectors.net</title><path class="a" d="M255.1,325.75H84.64a9.4,9.4,0,0,1-9.4-9.4h0a4.27,4.27,0,0,1,4.27-4.27H232.27a4.28,4.28,0,0,0,4.28-4.28V292.4a9.39,9.39,0,0,0-9.34222-9.43754q-.44454-.00225-.88777.03754L71.52,296.71A21.36,21.36,0,0,0,52,318V466.78a21.37,21.37,0,0,0,21.37,21.37H255.1a21.37,21.37,0,0,0,21.37-21.37V347.12A21.37,21.37,0,0,0,255.1,325.75ZM202.44,437.54A29.78,29.78,0,0,1,184,461.8a46.73993,46.73993,0,0,1-19.72,3.37,64,64,0,0,1-26.88-6.91,67.26882,67.26882,0,0,1-10.78-7.36c-.76-.64-1.15-1.2-.42-2.23s3.8-5.67,4.31-6.37a1.72,1.72,0,0,1,2.72-.27l1.34,1c8,6.21,18.29,10.87,29.73,11.31,14.43-.19,24.9-6.62,26.77-16.57,2.06-11-6.69-20.38-23.55-25.63-5.36-1.67-18.83-7-21.32-8.47q-17.61-10.25-16.43-26.84c1.23-15.31,15.48-26.78,33.62-26.83a61.58977,61.58977,0,0,1,23.87,4.89,62.66945,62.66945,0,0,1,9.34,5.06,1.83,1.83,0,0,1,.65,2.67c-.72,1.19-2.85,4.51-3.71,5.89-.63,1-1.4,1-2.5.36a50.36,50.36,0,0,0-27.4-8.46c-12.39.22-21.73,7.53-22.35,17.59-.16,9,6.77,15.62,21.47,20.64C193.12,408.3,204.62,419.68,202.44,437.54Z" transform="translate(-16.19048 -245.2381)"/><path class="a" d="M376.5,392.3c-16.61-5.34-24.26-12.34-24.26-22,.48-10.71,10.48-18.79,24.1-19.29a54.76,54.76,0,0,1,30.48,9.12c2.45,1.48,3.65.91,5.08-1,.15-.25.68-1,2.42-3.5h0c1.65-2.35,2.29-3.28,2.46-3.57,1.22-2.18,1.22-3.38-1.26-5.06a74.14072,74.14072,0,0,0-11.29-5.85,73,73,0,0,0-28.47-5.3c-21.85.47-39,14.65-40.09,33.32-.72,13.48,6.17,24.32,20.45,32.3,4.07,2.13,18.63,7.59,25.29,9.54,19,5.55,28.8,15.67,26.79,27.47-1.82,10.73-13.18,18-29.29,18.46-11.76-.25-23.57-4.56-33.8-12.21l-.79-.59-.8-.59c-2.24-1.54-3.87-1.54-5.41.79l-2.53,3.83c-1.44,2.17-2.07,3.12-2.41,3.65-1.32,1.95-1.09,3,.84,4.62h0a79.44044,79.44044,0,0,0,13,8.53,76.00017,76.00017,0,0,0,32.05,7.63,55.81,55.81,0,0,0,23.54-4.44c12.53-5.56,20.52-16.42,21.92-29.8C426.81,416.62,412.61,403.1,376.5,392.3Z" transform="translate(-16.19048 -245.2381)"/><path class="a" d="M477.79,386.88a40.52,40.52,0,0,0-24.1,8v-56c0-2.2-.87-3-3-3H440.5c-2.41,0-3,.8-3,3V469c0,2.14.63,3,3,3h10.15c2.21,0,3-.93,3-3V426.5c0-14.53,10.86-23.68,24.1-23.68s24.1,9.15,24.1,23.77V469c0,2.46.6,3,3,3h10.12c2.41,0,3-.57,3-3V426.46C518,404.67,499.82,386.88,477.79,386.88Z" transform="translate(-16.19048 -245.2381)"/><path class="a" d="M574.59,387c-24.08,0-43.6,19.13-43.6,42.74s19.52,42.74,43.6,42.74,43.61-19.13,43.61-42.74S598.67,387,574.59,387Zm0,69.76c-15.25,0-27.61-12.11-27.61-27s12.36-27,27.61-27,27.61,12.11,27.61,27-12.36,26.97-27.62,26.97Z" transform="translate(-16.19048 -245.2381)"/><path class="a" d="M904.27,435.46h.22a5.09,5.09,0,0,0,4.77-5.14v-.68c0-23.59-18.51-42.73-41.34-42.73s-41.34,19.14-41.34,42.73a43.82405,43.82405,0,0,0,.31,5.26l.06.56h0a41.72011,41.72011,0,0,0,10.47,22.59h.05A44,44,0,0,0,862,471.62l.74.14h0l1.12.18c13.1,1.58,24.13-.54,33.07-5a40.65941,40.65941,0,0,0,6.23-3.83c.61-.46,1.14-.89,1.57-1.28.27-.23.45-.4.55-.5,2.31-2.38,2.41-3.41,1-5.56-3.2-5.1-5-7.59-5-7.59-1.26-1.57-2.38-1.92-4-.51-.28.25-.54.41-.68.56-9.55,8.48-22.07,10.14-33,7.86a36.561,36.561,0,0,1-6.27-2.29A26.46008,26.46008,0,0,1,843,435.46h61.27ZM844,419.79c3.17-10.34,12.75-17.23,23.94-17.23a26.5,26.5,0,0,1,24.37,17.23Z" transform="translate(-16.19048 -245.2381)"/><path class="a" d="M674.46,386.75a42.71994,42.71994,0,0,0-27.11,9.64v-6.6c0-2.3-.63-3-3-3H634.7c-2.42,0-3,.68-3,3v123c0,2.24.63,3,3,3h9.65c2.41,0,3-.79,3-3V462.58a42.78,42.78,0,1,0,27.11-75.83Zm0,69.76a27.08,27.08,0,0,1-27.1-26.35v-1.39a27.11,27.11,0,1,1,27.1,27.74Z" transform="translate(-16.19048 -245.2381)"/><path class="a" d="M813.54,429.64c0-23.59-18.51-42.73-41.35-42.73s-41.34,19.14-41.34,42.73a46.00279,46.00279,0,0,0,.31,5.26l.07.56h0a41.64987,41.64987,0,0,0,10.47,22.59h0a44,44,0,0,0,24.5,13.52l.75.14h0l1.12.18c13.1,1.58,24.12-.54,33.07-5a41.149,41.149,0,0,0,6.23-3.83c.61-.46,1.13-.89,1.57-1.28.27-.23.45-.4.55-.5,2.31-2.38,2.41-3.41,1-5.56-3.2-5.1-5-7.59-5-7.59-1.25-1.57-2.38-1.92-4-.51-.28.25-.54.41-.67.56-9.55,8.48-22.08,10.14-33,7.86a36.9994,36.9994,0,0,1-6.28-2.29,26.45,26.45,0,0,1-14.38-18.26h61.5a5.08,5.08,0,0,0,4.76-5.14v-.36A2.12892,2.12892,0,0,0,813.54,429.64Zm-65.27-9.85c3.17-10.34,12.75-17.23,23.94-17.23a26.48,26.48,0,0,1,24.36,17.23Z" transform="translate(-16.19048 -245.2381)"/><path class="a" d="M935.37,467.83V340.13a4.78,4.78,0,0,1,4.76995-4.79c.00672,0,.01337,0,.02,0h43.12c24.27.31,44,20.08,44,44.07s-19.75,43.75-44,44.06H952.07v44.35a4.79,4.79,0,0,1-4.79,4.79h-7.12a4.78,4.78,0,0,1-4.79-4.76994Zm16.7-61.71h31a27.11,27.11,0,0,0,19.23-7.93,26.81,26.81,0,0,0,8-19.11,27.11,27.11,0,0,0-27.12-27H952.07Z" transform="translate(-16.19048 -245.2381)"/><path class="a" d="M1137.23,510.9l32.64-56.08-39.09-64a2.87,2.87,0,0,1,2.45-4.37h15.83l31.43994,51,30.36-51h14.6a2.87007,2.87007,0,0,1,2.48,4.33l-73.57,124.43h-14.65a2.87995,2.87995,0,0,1-2.48987-4.31Z" transform="translate(-16.19048 -245.2381)"/><path class="a" d="M1100.52,467.18V459.8l-2.43,2a44.2,44.2,0,0,1-28.28,10.2c-23.95,0-43.44-19.18-43.44-42.76,0-23.21,19.49-42.1,43.44-42.1a44.25989,44.25989,0,0,1,28.28,10.15l2.43,2V391.9a4.79,4.79,0,0,1,4.79-4.79H1115.25V472h-9.93994a4.79008,4.79008,0,0,1-4.79016-4.78987ZM1069.69,403c-15.05,0-27.3,11.77-27.3,26.23s12.5,26.88,27.3,26.88,27.3-12.31,27.3-26.88S1084.75,403,1069.69,403Z" transform="translate(-16.19048 -245.2381)"/><rect class="b" width="1247.61905" height="309.52381"/></svg>