<svg xmlns="http://www.w3.org/2000/svg" viewBox="0 0 750 471" role="img" aria-label="Visa">
  <rect width="750" height="471" rx="40" fill="#1A1F71"/>
  <path d="M278.2 334.5l34.4-212.4h55l-34.4 212.4z" fill="#FFFFFF"/>
  <path d="M524.3 124.7c-10.9-4.2-28-8.7-49.3-8.7-54.4 0-92.7 28.9-93 70.3-.3 30.6 27.3 47.7 48.2 57.9 21.4 10.4 28.6 17.1 28.5 26.4-.1 14.3-17.1 20.8-32.9 20.8-22 0-33.7-3.2-51.8-11.1l-7.1-3.4-7.7 47.6c12.9 5.9 36.6 11.1 61.3 11.4 57.8 0 95.4-28.6 95.8-72.9.2-24.3-14.5-42.8-46.3-58.1-19.3-9.9-31.1-16.5-31-26.5 0-8.9 10-18.4 31.6-18.4 18-.3 31 3.8 41.1 8.1l4.9 2.4 7.7-45.8z" fill="#FFFFFF"/>
  <path d="M661.4 122.1h-42.5c-13.2 0-23 3.8-28.8 17.6l-81.7 195.2h57.8s9.4-26.2 11.6-31.9c6.3 0 62.4.1 70.4.1 1.6 7.4 6.6 31.8 6.6 31.8h51.1L661.4 122.1zm-67.8 138c4.5-12.2 21.9-59.5 21.9-59.5-.3.5 4.5-12.3 7.3-20.3l3.7 18.4s10.5 50.6 12.7 61.4h-45.6z" fill="#FFFFFF"/>
  <path d="M205.8 122.1l-53.9 144.9-5.8-29.6c-10-34-41.3-70.9-76.3-89.4l49.3 186.4 58.3-.1 86.7-212.2h-58.3z" fill="#FFFFFF"/>
  <path d="M114.7 122.1H24.5L24 126c70.5 18 117.1 61.5 136.6 113.8l-19.7-99.5c-3.4-13.6-13.2-17.7-26.2-18.2z" fill="#F9A533"/>
</svg>
